<svg width="16" height="16" viewBox="0 0 16 16" fill="none" xmlns="http://www.w3.org/2000/svg">
<path d="M3.67773 5.5625C3.75915 5.5627 3.83203 5.63634 3.83203 5.71777V15.8457C3.83203 15.9271 3.75915 16.0008 3.67773 16.001H0.504883C0.423436 16.0008 0.350586 15.9272 0.350586 15.8457V5.71777C0.350586 5.63631 0.423436 5.56265 0.504883 5.5625H3.67773ZM11.833 5.21875C13.7493 5.21896 15.6572 6.60577 15.6572 9.39453V15.3066C15.6571 15.6816 15.3392 15.9999 14.9561 16H12.8682C12.4932 16 12.175 15.6816 12.1748 15.3066V10.4375C12.1746 9.47553 11.4004 8.6926 10.4385 8.69238C9.47633 8.69238 8.70138 9.4754 8.70117 10.4375V15.3066C8.70101 15.6816 8.38308 15.9999 8 16H5.91992C5.53689 15.9998 5.21891 15.6815 5.21875 15.3066V6.2627C5.21875 5.87953 5.5368 5.56171 5.91992 5.56152H8C8.38317 5.56165 8.70117 5.87949 8.70117 6.2627V6.70312C9.39434 5.80609 10.5445 5.21875 11.833 5.21875ZM2.08789 0C3.24584 4.96255e-05 4.17578 0.938081 4.17578 2.08789C4.17565 3.23759 3.24576 4.17573 2.08789 4.17578C0.93813 4.17578 0.000128932 3.23762 0 2.08789C0 0.93805 0.93805 0 2.08789 0Z" fill="black"/>
</svg>
